<?xml version="1.0" standalone="no"?>
<!DOCTYPE svg PUBLIC "-//W3C//DTD SVG 20010904//EN"
 "http://www.w3.org/TR/2001/REC-SVG-20010904/DTD/svg10.dtd">
<svg version="1.0" xmlns="http://www.w3.org/2000/svg"
 width="170.000000pt" height="189.000000pt" viewBox="0 0 170.000000 189.000000"
 preserveAspectRatio="xMidYMid meet">

<g transform="translate(0.000000,189.000000) scale(0.100000,-0.100000)"
fill="#000000" stroke="none">
<path d="M20 1819 c-7 -35 -15 -164 -17 -287 -4 -180 -2 -242 12 -324 59 -352
219 -665 480 -936 102 -107 291 -262 318 -262 19 0 160 109 262 204 52 47 129
130 173 184 183 228 290 452 349 730 24 115 27 148 27 352 1 144 -4 257 -13
313 -13 88 -14 89 -40 84 -14 -2 -83 -16 -152 -31 -200 -41 -360 -56 -614 -56
-294 0 -429 16 -746 86 -26 6 -27 4 -39 -57z m259 -64 c267 -44 314 -48 543
-49 l227 0 -52 -34 c-29 -18 -59 -40 -68 -48 -12 -11 -52 -14 -175 -14 l-159
-1 25 -20 c80 -64 139 -115 139 -119 0 -3 -13 -20 -29 -39 l-29 -34 -73 60
c-88 72 -153 113 -238 152 -78 35 -199 73 -210 66 -4 -3 -11 -47 -15 -99 -13
-167 38 -326 141 -444 40 -46 111 -188 100 -200 -8 -7 -66 38 -133 102 l-63
59 16 -54 c34 -115 121 -310 145 -325 18 -10 129 -33 165 -34 25 0 39 -9 68
-44 20 -24 36 -48 36 -52 0 -4 -43 -4 -96 0 -109 7 -107 14 -27 -86 78 -96 69
-92 162 -63 l82 26 40 -32 c22 -17 37 -35 32 -39 -4 -4 -37 -18 -73 -31 -36
-12 -68 -25 -73 -29 -7 -6 65 -73 109 -100 20 -12 27 -9 84 38 l62 52 30 -17
c53 -32 52 -37 -9 -90 -80 -67 -139 -113 -149 -113 -4 0 -32 19 -63 42 -354
268 -591 645 -661 1054 -23 136 -28 368 -9 499 12 91 15 99 36 90 9 -3 82 -16
162 -30z m1255 18 c17 -61 28 -232 23 -367 -6 -159 -27 -283 -73 -429 -62
-195 -213 -454 -344 -589 l-65 -68 -80 54 c-161 110 -306 254 -410 411 -47 70
-115 194 -115 207 0 3 37 -10 83 -28 141 -57 296 -67 444 -28 217 56 412 249
453 450 12 58 10 277 -2 290 -10 10 -114 -20 -201 -56 -98 -42 -224 -128 -306
-207 l-70 -68 54 -89 55 -89 -48 -51 c-26 -28 -64 -71 -85 -96 l-37 -45 -33
40 c-17 22 -54 64 -81 93 l-50 53 23 47 c130 267 423 486 756 566 82 20 103
19 109 -1z m-1212 -193 c5 -3 -1 -24 -12 -45 -26 -50 -25 -98 1 -152 55 -114
194 -135 282 -43 l37 39 32 -28 32 -28 -46 -46 c-124 -124 -332 -89 -412 69
-34 69 -33 171 4 232 18 30 21 31 47 20 16 -6 31 -15 35 -18z m1071 -14 c28
-58 31 -115 12 -182 -29 -103 -138 -184 -246 -184 -73 0 -168 49 -206 106 -15
23 -15 26 7 49 29 30 47 32 55 5 4 -12 25 -33 47 -48 32 -21 53 -27 97 -27 67
1 110 23 148 78 35 51 38 126 5 180 l-21 37 32 14 c42 19 49 16 70 -28z m-973
-36 c40 -20 40 -20 20 -40 -25 -25 -25 -32 -1 -61 16 -20 22 -22 44 -12 14 7
27 21 29 33 3 20 4 20 41 -6 34 -25 36 -29 24 -48 -20 -30 -76 -66 -104 -66
-67 0 -133 61 -133 123 0 27 27 97 37 97 2 0 22 -9 43 -20z m854 -23 c44 -92
-41 -195 -143 -172 -29 6 -91 59 -91 77 0 13 53 57 68 58 6 0 12 -9 12 -20 0
-41 60 -48 81 -9 10 20 -3 59 -21 59 -18 0 -10 15 18 32 39 23 54 18 76 -25z"/>
<path d="M781 1211 l-20 -38 25 -24 25 -23 26 26 26 26 -22 36 c-13 20 -27 36
-32 36 -5 0 -17 -17 -28 -39z"/>
<path d="M1153 895 c-47 -24 -119 -50 -165 -60 -86 -19 -242 -25 -291 -12
l-29 8 17 -28 c9 -15 33 -47 53 -70 l37 -42 75 20 c94 24 205 76 284 133 49
36 123 101 105 94 -2 -1 -41 -20 -86 -43z"/>
<path d="M1150 738 c-60 -41 -172 -92 -244 -113 l-59 -17 36 -36 36 -36 83 56
c66 46 217 180 198 177 -3 0 -25 -14 -50 -31z"/>
<path d="M1160 589 c-19 -16 -62 -48 -94 -71 l-59 -41 22 -19 c13 -10 26 -18
30 -18 6 1 57 63 115 143 34 45 32 46 -14 6z"/>
</g>
</svg>
